#!OML:ASF E:\emotionWalksFemale\Project 1\Capture day 1\Session 1\Female1.ASF
:FULLY-SPECIFIED
:DEGREES
1573
root 9.08556 15.1001 -37.5836 -3.33693 8.44263 -1.40592
lowerback 3.98736 1.56038 -1.21086
upperback -3.68911 1.9917 -0.306885
thorax -6.09865 1.03065 0.175262
lowerneck -11.2 -5.59928 -5.60643
upperneck 30.3075 -9.40438 8.3971
head 12.5828 -3.79603 2.83402
rclavicle 1.11319e-014 1.51076e-014
rhumerus -47.9351 23.6078 -104.094
rradius 31.7011
rwrist 15.4446
rhand -4.66779 -52.0534
rfingers 7.12502
rthumb 21.1126 -80.924
lclavicle 1.11319e-014 1.51076e-014
lhumerus -43.331 -4.20027 88.5632
lradius 33.4377
lwrist -19.8063
lhand 2.0096 -28.8159
lfingers 7.12502
lthumb 27.5138 -0.806131
rfemur 2.39968 13.2331 33.3449
rtibia 26.4817
rfoot -27.1422 -31.7524
rtoes 8.3588
lfemur -13.3001 -16.3684 -20.7148
ltibia 38.1948
lfoot -25.2002 -1.66432
ltoes -23.7725
1574
root 9.07511 15.0987 -37.5807 -3.37987 8.39213 -1.3702
lowerback 3.81148 1.57284 -1.36451
upperback -3.55341 2.00672 -0.212236
thorax -5.86396 1.04581 0.36599
lowerneck -11.2892 -5.62714 -5.71018
upperneck 30.25 -9.42519 8.43826
head 12.5882 -3.81054 2.86113
rclavicle 3.47376e-014 1.66979e-014
rhumerus -47.8024 23.7732 -103.896
rradius 31.8272
rwrist 14.9871
rhand -5.32436 -51.6746
rfingers 7.12502
rthumb 20.4817 -80.6143
lclavicle 3.47376e-014 1.66979e-014
lhumerus -43.1349 -4.22787 88.7201
lradius 33.4431
lwrist -19.4708
lhand 1.03716 -29.6328
lfingers 7.12502
lthumb 26.5834 -1.47863
rfemur 2.44167 13.2288 33.3648
rtibia 26.5019
rfoot -27.0626 -31.8124
rtoes 7.82416
lfemur -13.2386 -16.2643 -20.7171
ltibia 38.2004
lfoot -25.2219 -1.75447
ltoes -23.564
1575
root 9.06539 15.0993 -37.5749 -3.39838 8.33764 -1.28357
lowerback 3.65166 1.61237 -1.56401
upperback -3.48325 2.05232 -0.168143
thorax -5.70863 1.07682 0.525374
lowerneck -11.2288 -5.64684 -5.6684
upperneck 30.137 -9.4555 8.43935
head 12.5295 -3.82323 2.84883
rclavicle -4.27387e-015 6.75868e-015
rhumerus -47.615 23.586 -103.568
rradius 31.9276
rwrist 14.3968
rhand -5.30326 -51.319
rfingers 7.12502
rthumb 20.502 -80.2565
lclavicle -4.27387e-015 6.75868e-015
lhumerus -43.088 -4.3194 88.8404
lradius 33.5017
lwrist -19.2471
lhand 0.376107 -29.5862
lfingers 7.12502
lthumb 25.9506 -1.33769
rfemur 2.45265 13.1643 33.3053
rtibia 26.5663
rfoot -27.1324 -31.8204
rtoes 7.15518
lfemur -13.1775 -16.1884 -20.7755
ltibia 38.1847
lfoot -25.1564 -1.84114
ltoes -22.8224
1576
root 9.05639 15.1003 -37.5697 -3.34071 8.35601 -1.203
lowerback 4.00044 1.61405 -1.49312
upperback -3.75781 2.04225 -0.331992
thorax -6.18935 1.06794 0.300355
lowerneck -11.2306 -5.63907 -5.50738
upperneck 30.3858 -9.54329 8.54349
head 12.6387 -3.82544 2.85349
rclavicle 1.88845e-015 7.95139e-015
rhumerus -47.9808 23.2514 -103.874
rradius 31.71
rwrist 15.3203
rhand -4.0909 -52.4433
rfingers 7.12502
rthumb 21.6667 -81.251
lclavicle 1.88845e-015 7.95139e-015
lhumerus -43.5004 -4.61105 88.7308
lradius 33.5847
lwrist -19.0457
lhand -0.247281 -29.9333
lfingers 7.12502
lthumb 25.3535 -1.59871
rfemur 2.37187 13.0264 33.2144
rtibia 26.6352
rfoot -27.1493 -31.7157
rtoes 6.9531
lfemur -13.2175 -16.153 -20.7994
ltibia 38.1685
lfoot -25.1522 -1.93296
ltoes -22.4689
1577
root 9.04936 15.1001 -37.5655 -3.27399 8.31753 -1.17227
lowerback 3.94144 1.62196 -1.32065
upperback -3.77946 2.05803 -0.466823
thorax -6.16684 1.06491 0.0638191
lowerneck -11.5386 -5.63955 -5.38652
upperneck 30.6225 -9.62076 8.63809
head 12.81 -3.81894 2.85513
rclavicle -6.55989e-015 -1.63003e-014
rhumerus -47.7158 22.9845 -103.83
rradius 31.6095
rwrist 14.8752
rhand -5.66756 -51.5694
rfingers 7.12502
rthumb 20.1519 -80.5442
lclavicle -6.55989e-015 -1.63003e-014
lhumerus -43.451 -4.8709 88.6094
lradius 33.5281
lwrist -18.9092
lhand -0.970472 -30.4411
lfingers 7.12502
lthumb 24.6605 -2.01001
rfemur 2.24638 12.8059 33.1213
rtibia 26.711
rfoot -27.0797 -31.4574
rtoes 6.59777
lfemur -13.2853 -16.0723 -20.7781
ltibia 38.1992
lfoot -25.3292 -1.7772
ltoes -23.6348
